<svg xmlns="http://www.w3.org/2000/svg" width="16" height="16" viewBox="0 0 16 16">
  <title>They Vote For You</title>
  <path fill="hsl(0,0%,50%)" d="M7 13v2l-2 1-2-1v-3l2.5-3.75L3 7V4l2-1 2 1v2l2-3V1l2-1 2 1v3l-2.5 3.75L13 9v3l-2 1-2-1v-2z"/>
  <path fill="#fff" fill-opacity=".5" d="M9 1l2-1 2 1-2 1zM3 4l2-1 2 1-2 1z"/>
  <path fill="#fff" fill-opacity=".4" d="M5.5 8.25l2 1L5 13l-2-1zM9 3l2 1-2 3-2-1z"/>
  <path fill="#fff" fill-opacity=".1" d="M3 12l2 1v3l-2-1zM9 1l2 1v2L9 3zM3 4l2 1v3L3 7zM9 10l2 1v2l-2-1z"/>
</svg>